<?xml version="1.0" encoding="UTF-8" standalone="no"?><svg xmlns="http://www.w3.org/2000/svg" xmlns:xlink="http://www.w3.org/1999/xlink" contentScriptType="application/ecmascript" contentStyleType="text/css" height="519px" preserveAspectRatio="none" style="width:809px;height:519px;" version="1.1" viewBox="0 0 809 519" width="809px" zoomAndPan="magnify"><defs/><g><text fill="#000000" font-family="sans-serif" font-size="18" lengthAdjust="spacingAndGlyphs" textLength="182" x="317.5" y="18.6855">CSIS - System Context</text><!--entity 3--><rect fill="#1168BD" height="98.4375" style="stroke: #707070; stroke-width: 1.5;" width="204" x="15.5" y="383.6406"/><text fill="#FFFFFF" font-family="sans-serif" font-size="14" font-style="italic" lengthAdjust="spacingAndGlyphs" textLength="121" x="57" y="408.1738">«Software System»</text><text fill="#FFFFFF" font-family="sans-serif" font-size="14" lengthAdjust="spacingAndGlyphs" textLength="31" x="25.5" y="425.7832">CSIS</text><line style="stroke: #707070; stroke-width: 1.0;" x1="16.5" x2="218.5" y1="428.8594" y2="428.8594"/><text fill="#FFFFFF" font-family="sans-serif" font-size="14" lengthAdjust="spacingAndGlyphs" textLength="172" x="31.5" y="447.3926">Climate Service Information</text><text fill="#FFFFFF" font-family="sans-serif" font-size="14" lengthAdjust="spacingAndGlyphs" textLength="46" x="31.5" y="465.002">System</text><!--entity 1--><ellipse cx="36.5" cy="67.25" fill="#08427B" rx="8" ry="8" style="stroke: #707070; stroke-width: 2.0;"/><path d="M36.5,75.25 L36.5,102.25 M23.5,83.25 L49.5,83.25 M36.5,102.25 L23.5,117.25 M36.5,102.25 L49.5,117.25 " fill="none" style="stroke: #707070; stroke-width: 2.0;"/><text fill="#000000" font-family="sans-serif" font-size="14" lengthAdjust="spacingAndGlyphs" textLength="61" x="6" y="134.7832">Customer</text><text fill="#000000" font-family="sans-serif" font-size="14" font-style="italic" lengthAdjust="spacingAndGlyphs" textLength="61" x="6" y="54.1738">«Person»</text><path d="M102,75.6406 L102,84.6406 L67.1719,88.6406 L102,92.6406 L102,101.9922 A0,0 0 0 0 102,101.9922 L273,101.9922 A0,0 0 0 0 273,101.9922 L273,85.6406 L263,75.6406 L102,75.6406 A0,0 0 0 0 102,75.6406 " fill="#FFFFFF" style="stroke: #707070; stroke-width: 1.0;"/><path d="M263,75.6406 L263,85.6406 L273,85.6406 L263,75.6406 " fill="#FFFFFF" style="stroke: #707070; stroke-width: 1.0;"/><text fill="#000000" font-family="sans-serif" font-size="13" lengthAdjust="spacingAndGlyphs" textLength="150" x="108" y="94.1357">Climate Service Customer</text><!--entity 4--><rect fill="#1168BD" height="80.8281" style="stroke: #707070; stroke-width: 1.5;" width="211" x="252" y="224.6406"/><text fill="#FFFFFF" font-family="sans-serif" font-size="14" font-style="italic" lengthAdjust="spacingAndGlyphs" textLength="121" x="297" y="249.1738">«Software System»</text><text fill="#FFFFFF" font-family="sans-serif" font-size="14" lengthAdjust="spacingAndGlyphs" textLength="77" x="262" y="266.7832">Marketplace</text><line style="stroke: #707070; stroke-width: 1.0;" x1="253" x2="462" y1="269.8594" y2="269.8594"/><text fill="#FFFFFF" font-family="sans-serif" font-size="14" lengthAdjust="spacingAndGlyphs" textLength="179" x="268" y="288.3926">Climate Service Marketplace</text><!--entity 5--><rect fill="#1168BD" height="116.0469" style="stroke: #707070; stroke-width: 1.5;" width="178" x="620.5" y="30.6406"/><text fill="#FFFFFF" font-family="sans-serif" font-size="14" font-style="italic" lengthAdjust="spacingAndGlyphs" textLength="121" x="649" y="55.1738">«Software System»</text><text fill="#FFFFFF" font-family="sans-serif" font-size="14" lengthAdjust="spacingAndGlyphs" textLength="135" x="630.5" y="72.7832">Platforms and Portals</text><line style="stroke: #707070; stroke-width: 1.0;" x1="621.5" x2="797.5" y1="75.8594" y2="75.8594"/><text fill="#FFFFFF" font-family="sans-serif" font-size="14" lengthAdjust="spacingAndGlyphs" textLength="146" x="636.5" y="94.3926">External (Climate) Data</text><text fill="#FFFFFF" font-family="sans-serif" font-size="14" lengthAdjust="spacingAndGlyphs" textLength="146" x="636.5" y="112.002">Infrasrtuctures, Servive</text><text fill="#FFFFFF" font-family="sans-serif" font-size="14" lengthAdjust="spacingAndGlyphs" textLength="128" x="636.5" y="129.6113">Platform and Portals</text><!--entity 2--><ellipse cx="357.5" cy="67.25" fill="#08427B" rx="8" ry="8" style="stroke: #707070; stroke-width: 2.0;"/><path d="M357.5,75.25 L357.5,102.25 M344.5,83.25 L370.5,83.25 M357.5,102.25 L344.5,117.25 M357.5,102.25 L370.5,117.25 " fill="none" style="stroke: #707070; stroke-width: 2.0;"/><text fill="#000000" font-family="sans-serif" font-size="14" lengthAdjust="spacingAndGlyphs" textLength="52" x="331.5" y="134.7832">Supplier</text><text fill="#000000" font-family="sans-serif" font-size="14" font-style="italic" lengthAdjust="spacingAndGlyphs" textLength="61" x="327" y="54.1738">«Person»</text><path d="M423.5,75.6406 L423.5,84.6406 L388.221,88.6406 L423.5,92.6406 L423.5,101.9922 A0,0 0 0 0 423.5,101.9922 L585.5,101.9922 A0,0 0 0 0 585.5,101.9922 L585.5,85.6406 L575.5,75.6406 L423.5,75.6406 A0,0 0 0 0 423.5,75.6406 " fill="#FFFFFF" style="stroke: #707070; stroke-width: 1.0;"/><path d="M575.5,75.6406 L575.5,85.6406 L585.5,85.6406 L575.5,75.6406 " fill="#FFFFFF" style="stroke: #707070; stroke-width: 1.0;"/><text fill="#000000" font-family="sans-serif" font-size="13" lengthAdjust="spacingAndGlyphs" textLength="141" x="429.5" y="94.1357">Climate Service Supplier</text><!--link 1 to 3--><path d="M28.8513,137.9336 C23.5755,182.4516 20.1204,249.8716 36.5,305.6406 C44.1947,331.8396 59.2038,357.7436 74.2327,379.1876 " fill="none" id="1-3" style="stroke: #707070; stroke-width: 1.0; stroke-dasharray: 7.0,7.0;"/><polygon fill="#707070" points="77.2366,383.416,75.2852,373.7624,74.3409,379.3399,68.7634,378.3955,77.2366,383.416" style="stroke: #707070; stroke-width: 1.0;"/><text fill="#000000" font-family="sans-serif" font-size="13" lengthAdjust="spacingAndGlyphs" textLength="196" x="37.5" y="270.6357">perform climate addaptation study</text><!--link 1 to 4--><path d="M61.0719,137.8486 C73.6265,158.0966 90.6794,180.2426 111.5,194.6406 C154.238,224.1956 174.478,210.5756 224.5,224.6406 C231.753,226.6796 239.22,228.8106 246.74,230.9806 " fill="none" id="1-4" style="stroke: #707070; stroke-width: 1.0; stroke-dasharray: 7.0,7.0;"/><polygon fill="#707070" points="251.952,232.4876,244.4188,226.1433,247.1491,231.0976,242.1948,233.8279,251.952,232.4876" style="stroke: #707070; stroke-width: 1.0;"/><text fill="#000000" font-family="sans-serif" font-size="13" lengthAdjust="spacingAndGlyphs" textLength="236" x="112.5" y="191.1357">discover additional products and services</text><!--link 4 to 3--><path d="M300.014,305.7816 C267.499,328.2036 226.488,356.4846 191.582,380.5546 " fill="none" id="4-3" style="stroke: #707070; stroke-width: 1.0; stroke-dasharray: 7.0,7.0;"/><polygon fill="#707070" points="187.356,383.4689,197.0359,381.6526,191.4722,380.6304,192.4943,375.0667,187.356,383.4689" style="stroke: #707070; stroke-width: 1.0;"/><text fill="#000000" font-family="sans-serif" font-size="13" lengthAdjust="spacingAndGlyphs" textLength="177" x="253.5" y="350.1357">promote products and services</text><!--link 2 to 4--><path d="M357.5,137.7856 C357.5,163.2146 357.5,194.2316 357.5,219.1706 " fill="none" id="2-4" style="stroke: #707070; stroke-width: 1.0; stroke-dasharray: 7.0,7.0;"/><polygon fill="#707070" points="357.5,224.3956,361.5,215.3956,357.5,219.3956,353.5,215.3956,357.5,224.3956" style="stroke: #707070; stroke-width: 1.0;"/><text fill="#000000" font-family="sans-serif" font-size="13" lengthAdjust="spacingAndGlyphs" textLength="226" x="358.5" y="191.1357">offer value-added products and services</text><text fill="#000000" font-family="sans-serif" font-size="14" lengthAdjust="spacingAndGlyphs" textLength="133" x="342" y="506.1738">CSIS System Context</text><!--
@startuml(id=SystemContextView)
scale max 2000x1409
title CSIS - System Context
caption CSIS System Context

skinparam {
  shadowing false
  arrowColor #707070
  actorBorderColor #707070
  componentBorderColor #707070
  rectangleBorderColor #707070
  noteBackgroundColor #ffffff
  noteBorderColor #707070
  rectangleFontColor #ffffff
  rectangleStereotypeFontColor #ffffff
}
rectangle 3 <<Software System>> #1168bd [
  CSIS
  - -
  Climate Service Information
  System
]
actor "Customer" <<Person>> as 1 #08427b
note right of 1
  Climate Service Customer
end note
rectangle 4 <<Software System>> #1168bd [
  Marketplace
  - -
  Climate Service Marketplace
]
rectangle 5 <<Software System>> #1168bd [
  Platforms and Portals
  - -
  External (Climate) Data
  Infrasrtuctures, Servive
  Platform and Portals
]
actor "Supplier" <<Person>> as 2 #08427b
note right of 2
  Climate Service Supplier
end note
1 .[#707070].> 3 : perform climate addaptation study
1 .[#707070].> 4 : discover additional products and services
4 .[#707070].> 3 : promote products and services
2 .[#707070].> 4 : offer value-added products and services
@enduml

PlantUML version 1.2018.13(Mon Nov 26 18:11:51 CET 2018)
(GPL source distribution)
Java Runtime: Java(TM) SE Runtime Environment
JVM: Java HotSpot(TM) 64-Bit Server VM
Java Version: 1.8.0_172-b11
Operating System: Windows 10
OS Version: 10.0
Default Encoding: UTF-8
Language: de
Country: DE
--></g></svg>