<?xml version="1.0" encoding="UTF-8"?><svg xmlns="http://www.w3.org/2000/svg" xmlns:xlink="http://www.w3.org/1999/xlink" fill-opacity="1" color-rendering="auto" color-interpolation="auto" text-rendering="auto" stroke="black" stroke-linecap="square" width="1045" stroke-miterlimit="10" shape-rendering="auto" stroke-opacity="1" fill="black" stroke-dasharray="none" font-weight="normal" stroke-width="1" height="960" font-family="'Dialog'" font-style="normal" stroke-linejoin="miter" font-size="12px" stroke-dashoffset="0" image-rendering="auto">
  <!--Generated by ySVG 2.5-->
  <defs id="genericDefs"/>
  <g>
    <defs id="defs1">
      <clipPath clipPathUnits="userSpaceOnUse" id="clipPath1">
        <path d="M0 0 L1045 0 L1045 960 L0 960 L0 0 Z"/>
      </clipPath>
      <clipPath clipPathUnits="userSpaceOnUse" id="clipPath2">
        <path d="M-34 225 L1011 225 L1011 1185 L-34 1185 L-34 225 Z"/>
      </clipPath>
      <clipPath clipPathUnits="userSpaceOnUse" id="clipPath3">
        <path d="M180.4423 -18.634 L180.4423 1026.366 L-779.5577 1026.366 L-779.5577 -18.634 L180.4423 -18.634 Z"/>
      </clipPath>
      <clipPath clipPathUnits="userSpaceOnUse" id="clipPath4">
        <path d="M302.8156 -18.634 L302.8156 1026.366 L-657.1844 1026.366 L-657.1844 -18.634 L302.8156 -18.634 Z"/>
      </clipPath>
      <clipPath clipPathUnits="userSpaceOnUse" id="clipPath5">
        <path d="M451.2621 -18.634 L451.2621 1026.366 L-508.7379 1026.366 L-508.7379 -18.634 L451.2621 -18.634 Z"/>
      </clipPath>
      <clipPath clipPathUnits="userSpaceOnUse" id="clipPath6">
        <path d="M598.4741 -18.634 L598.4741 1026.366 L-361.5259 1026.366 L-361.5259 -18.634 L598.4741 -18.634 Z"/>
      </clipPath>
      <clipPath clipPathUnits="userSpaceOnUse" id="clipPath7">
        <path d="M747.3759 -18.634 L747.3759 1026.366 L-212.6241 1026.366 L-212.6241 -18.634 L747.3759 -18.634 Z"/>
      </clipPath>
      <clipPath clipPathUnits="userSpaceOnUse" id="clipPath8">
        <path d="M888.8141 -18.634 L888.8141 1026.366 L-71.1859 1026.366 L-71.1859 -18.634 L888.8141 -18.634 Z"/>
      </clipPath>
    </defs>
    <g fill="white" text-rendering="geometricPrecision" shape-rendering="geometricPrecision" transform="translate(34,-225)" stroke="white">
      <rect x="-34" width="1045" height="960" y="225" clip-path="url(#clipPath2)" stroke="none"/>
    </g>
    <g fill="rgb(68,84,106)" text-rendering="geometricPrecision" shape-rendering="geometricPrecision" transform="matrix(1,0,0,1,34,-225)" stroke="rgb(68,84,106)">
      <path d="M-18.366 240.0139 L-18.366 250.0139 L995.2616 250.0139 L995.2616 240.0139 Z" stroke="none" clip-path="url(#clipPath2)"/>
      <rect x="-18.366" width="1013.6276" height="911.2909" y="250.0139" clip-path="url(#clipPath2)" stroke="none"/>
      <rect x="13.634" width="981.6276" height="40" y="250.0139" clip-path="url(#clipPath2)" stroke="none"/>
      <rect x="-18.366" y="290.0139" clip-path="url(#clipPath2)" fill="rgb(157,157,157)" width="32" height="144.2977" stroke="none"/>
      <rect x="13.634" y="290.0139" clip-path="url(#clipPath2)" fill="rgb(197,197,197)" width="981.6276" height="144.2977" stroke="none"/>
      <rect x="-18.366" y="434.3116" clip-path="url(#clipPath2)" fill="rgb(177,177,177)" width="32" height="149.6929" stroke="none"/>
      <rect x="13.634" y="434.3116" clip-path="url(#clipPath2)" fill="rgb(216,216,216)" width="981.6276" height="149.6929" stroke="none"/>
      <rect x="-18.366" y="584.0046" clip-path="url(#clipPath2)" fill="rgb(157,157,157)" width="32" height="147.2001" stroke="none"/>
      <rect x="13.634" y="584.0046" clip-path="url(#clipPath2)" fill="rgb(197,197,197)" width="981.6276" height="147.2001" stroke="none"/>
      <rect x="-18.366" y="731.2047" clip-path="url(#clipPath2)" fill="rgb(177,177,177)" width="32" height="147.2238" stroke="none"/>
      <rect x="13.634" y="731.2047" clip-path="url(#clipPath2)" fill="rgb(216,216,216)" width="981.6276" height="147.2238" stroke="none"/>
      <rect x="-18.366" y="878.4285" clip-path="url(#clipPath2)" fill="rgb(157,157,157)" width="32" height="145.8763" stroke="none"/>
      <rect x="13.634" y="878.4285" clip-path="url(#clipPath2)" fill="rgb(197,197,197)" width="981.6276" height="145.8763" stroke="none"/>
      <rect x="-18.366" y="1024.3048" clip-path="url(#clipPath2)" fill="rgb(177,177,177)" width="32" height="137" stroke="none"/>
      <rect x="13.634" y="1024.3048" clip-path="url(#clipPath2)" fill="rgb(216,216,216)" width="981.6276" height="137" stroke="none"/>
      <rect stroke-linecap="butt" x="-18.366" y="240.0139" clip-path="url(#clipPath2)" fill="none" width="1013.6276" height="921.2909" stroke-width="2" stroke-miterlimit="1.45"/>
      <rect stroke-linecap="butt" x="13.634" y="250.0139" clip-path="url(#clipPath2)" fill="none" width="981.6276" height="911.2909" stroke-width="2" stroke-miterlimit="1.45"/>
      <rect stroke-linecap="butt" x="-18.366" y="290.0139" clip-path="url(#clipPath2)" fill="none" width="1013.6276" height="144.2977" stroke-width="2" stroke-miterlimit="1.45"/>
      <rect stroke-linecap="butt" x="-18.366" y="434.3116" clip-path="url(#clipPath2)" fill="none" width="1013.6276" height="149.6929" stroke-width="2" stroke-miterlimit="1.45"/>
      <rect stroke-linecap="butt" x="-18.366" y="584.0046" clip-path="url(#clipPath2)" fill="none" width="1013.6276" height="147.2001" stroke-width="2" stroke-miterlimit="1.45"/>
      <rect stroke-linecap="butt" x="-18.366" y="731.2047" clip-path="url(#clipPath2)" fill="none" width="1013.6276" height="147.2238" stroke-width="2" stroke-miterlimit="1.45"/>
      <rect stroke-linecap="butt" x="-18.366" y="878.4285" clip-path="url(#clipPath2)" fill="none" width="1013.6276" height="145.8763" stroke-width="2" stroke-miterlimit="1.45"/>
      <rect stroke-linecap="butt" x="-18.366" y="1024.3048" clip-path="url(#clipPath2)" fill="none" width="1013.6276" height="137" stroke-width="2" stroke-miterlimit="1.45"/>
    </g>
    <g stroke-linecap="butt" font-size="26px" transform="matrix(1,0,0,1,34,-225)" fill="white" text-rendering="geometricPrecision" font-family="'Calibri'" shape-rendering="geometricPrecision" stroke="white" font-weight="bold" stroke-miterlimit="1.45">
      <text x="351.5035" xml:space="preserve" y="272.3831" clip-path="url(#clipPath2)" stroke="none">Building Blocks and Tasks</text>
    </g>
    <g font-size="19px" stroke-linecap="butt" transform="matrix(-0,-1,1,-0,18.634,180.4423)" text-rendering="geometricPrecision" font-family="'Calibri'" shape-rendering="geometricPrecision" stroke-miterlimit="1.45">
      <text x="2" xml:space="preserve" y="18.3467" clip-path="url(#clipPath3)" stroke="none">T1.4 / T4.1</text>
    </g>
    <g font-size="19px" stroke-linecap="butt" transform="matrix(-0,-1,1,-0,18.634,302.8156)" text-rendering="geometricPrecision" font-family="'Calibri'" shape-rendering="geometricPrecision" stroke-miterlimit="1.45">
      <text x="2" xml:space="preserve" y="18.3467" clip-path="url(#clipPath4)" stroke="none">T4.2</text>
    </g>
    <g font-size="19px" stroke-linecap="butt" transform="matrix(-0,-1,1,-0,18.634,451.2621)" text-rendering="geometricPrecision" font-family="'Calibri'" shape-rendering="geometricPrecision" stroke-miterlimit="1.45">
      <text x="2" xml:space="preserve" y="18.3467" clip-path="url(#clipPath5)" stroke="none">T4.3</text>
    </g>
    <g font-size="19px" stroke-linecap="butt" transform="matrix(-0,-1,1,-0,18.634,598.4741)" text-rendering="geometricPrecision" font-family="'Calibri'" shape-rendering="geometricPrecision" stroke-miterlimit="1.45">
      <text x="2" xml:space="preserve" y="18.3467" clip-path="url(#clipPath6)" stroke="none">T4.4</text>
    </g>
    <g font-size="19px" stroke-linecap="butt" transform="matrix(-0,-1,1,-0,18.634,747.3759)" text-rendering="geometricPrecision" font-family="sans-serif" shape-rendering="geometricPrecision" stroke-miterlimit="1.45">
      <text x="2" xml:space="preserve" y="21.1021" clip-path="url(#clipPath7)" stroke="none">T4.5</text>
    </g>
    <g font-size="19px" stroke-linecap="butt" transform="matrix(-0,-1,1,-0,18.634,888.8141)" text-rendering="geometricPrecision" font-family="sans-serif" shape-rendering="geometricPrecision" stroke-miterlimit="1.45">
      <text x="2" xml:space="preserve" y="21.1021" clip-path="url(#clipPath8)" stroke="none">T5.4</text>
    </g>
    <g fill="rgb(68,84,106)" text-rendering="geometricPrecision" shape-rendering="geometricPrecision" transform="matrix(1,0,0,1,34,-225)" stroke="rgb(68,84,106)">
      <rect x="611.3288" width="170" height="103" y="310.0682" clip-path="url(#clipPath2)" stroke="none"/>
    </g>
    <g stroke-linecap="butt" font-size="18px" transform="matrix(1,0,0,1,34,-225)" fill="white" text-rendering="geometricPrecision" font-family="'Calibri'" shape-rendering="geometricPrecision" stroke="white" font-weight="bold" stroke-miterlimit="1.45">
      <text x="636.3699" xml:space="preserve" y="350.0545" clip-path="url(#clipPath2)" stroke="none">Integration and </text>
      <text x="643.6208" xml:space="preserve" y="368.0545" clip-path="url(#clipPath2)" stroke="none">Development </text>
      <text x="663.5588" xml:space="preserve" y="386.0545" clip-path="url(#clipPath2)" stroke="none">Platform</text>
    </g>
    <g stroke-linecap="butt" transform="matrix(1,0,0,1,34,-225)" fill="rgb(231,230,230)" text-rendering="geometricPrecision" shape-rendering="geometricPrecision" stroke="rgb(231,230,230)" stroke-miterlimit="1.45">
      <rect fill="none" x="611.3288" width="170" height="103" y="310.0682" clip-path="url(#clipPath2)"/>
    </g>
    <g fill="rgb(68,84,106)" text-rendering="geometricPrecision" shape-rendering="geometricPrecision" transform="matrix(1,0,0,1,34,-225)" stroke="rgb(68,84,106)">
      <rect x="419.2976" width="170" height="103" y="310.0682" clip-path="url(#clipPath2)" stroke="none"/>
    </g>
    <g stroke-linecap="butt" font-size="18px" transform="matrix(1,0,0,1,34,-225)" fill="white" text-rendering="geometricPrecision" font-family="'Calibri'" shape-rendering="geometricPrecision" stroke="white" font-weight="bold" stroke-miterlimit="1.45">
      <text x="438.406" xml:space="preserve" y="350.0545" clip-path="url(#clipPath2)" stroke="none">Container Engine </text>
      <text x="464.6545" xml:space="preserve" y="368.0545" clip-path="url(#clipPath2)" stroke="none">and Cloud </text>
      <text x="452.3938" xml:space="preserve" y="386.0545" clip-path="url(#clipPath2)" stroke="none">Infrastructure</text>
    </g>
    <g stroke-linecap="butt" transform="matrix(1,0,0,1,34,-225)" fill="rgb(231,230,230)" text-rendering="geometricPrecision" shape-rendering="geometricPrecision" stroke="rgb(231,230,230)" stroke-miterlimit="1.45">
      <rect fill="none" x="419.2976" width="170" height="103" y="310.0682" clip-path="url(#clipPath2)"/>
    </g>
    <g fill="rgb(68,84,106)" text-rendering="geometricPrecision" shape-rendering="geometricPrecision" transform="matrix(1,0,0,1,34,-225)" stroke="rgb(68,84,106)">
      <rect x="803.3601" width="170" height="103" y="310.0682" clip-path="url(#clipPath2)" stroke="none"/>
    </g>
    <g stroke-linecap="butt" font-size="18px" transform="matrix(1,0,0,1,34,-225)" fill="white" text-rendering="geometricPrecision" font-family="'Calibri'" shape-rendering="geometricPrecision" stroke="white" font-weight="bold" stroke-miterlimit="1.45">
      <text x="828.1594" xml:space="preserve" y="368.0545" clip-path="url(#clipPath2)" stroke="none">Data Repository</text>
    </g>
    <g stroke-linecap="butt" transform="matrix(1,0,0,1,34,-225)" fill="rgb(231,230,230)" text-rendering="geometricPrecision" shape-rendering="geometricPrecision" stroke="rgb(231,230,230)" stroke-miterlimit="1.45">
      <rect fill="none" x="803.3601" width="170" height="103" y="310.0682" clip-path="url(#clipPath2)"/>
    </g>
    <g fill="rgb(68,84,106)" text-rendering="geometricPrecision" shape-rendering="geometricPrecision" transform="matrix(1,0,0,1,34,-225)" stroke="rgb(68,84,106)">
      <rect x="323.8709" width="170" height="103" y="750.4259" clip-path="url(#clipPath2)" stroke="none"/>
    </g>
    <g stroke-linecap="butt" font-size="18px" transform="matrix(1,0,0,1,34,-225)" fill="white" text-rendering="geometricPrecision" font-family="'Calibri'" shape-rendering="geometricPrecision" stroke="white" font-weight="bold" stroke-miterlimit="1.45">
      <text x="374.7649" xml:space="preserve" y="790.4122" clip-path="url(#clipPath2)" stroke="none">Scenario </text>
      <text x="352.4539" xml:space="preserve" y="808.4122" clip-path="url(#clipPath2)" stroke="none">Transferability </text>
      <text x="364.9695" xml:space="preserve" y="826.4122" clip-path="url(#clipPath2)" stroke="none">Component</text>
    </g>
    <g stroke-linecap="butt" transform="matrix(1,0,0,1,34,-225)" fill="rgb(231,230,230)" text-rendering="geometricPrecision" shape-rendering="geometricPrecision" stroke="rgb(231,230,230)" stroke-miterlimit="1.45">
      <rect fill="none" x="323.8709" width="170" height="103" y="750.4259" clip-path="url(#clipPath2)"/>
    </g>
    <g fill="rgb(68,84,106)" text-rendering="geometricPrecision" shape-rendering="geometricPrecision" transform="matrix(1,0,0,1,34,-225)" stroke="rgb(68,84,106)">
      <rect x="515.9021" width="170" height="103" y="897.2118" clip-path="url(#clipPath2)" stroke="none"/>
    </g>
    <g stroke-linecap="butt" font-size="18px" transform="matrix(1,0,0,1,34,-225)" fill="white" text-rendering="geometricPrecision" font-family="'Calibri'" shape-rendering="geometricPrecision" stroke="white" font-weight="bold" stroke-miterlimit="1.45">
      <text x="531.0159" xml:space="preserve" y="955.1981" clip-path="url(#clipPath2)" stroke="none">Report Generation</text>
    </g>
    <g stroke-linecap="butt" transform="matrix(1,0,0,1,34,-225)" fill="rgb(231,230,230)" text-rendering="geometricPrecision" shape-rendering="geometricPrecision" stroke="rgb(231,230,230)" stroke-miterlimit="1.45">
      <rect fill="none" x="515.9021" width="170" height="103" y="897.2118" clip-path="url(#clipPath2)"/>
    </g>
    <g fill="rgb(68,84,106)" text-rendering="geometricPrecision" shape-rendering="geometricPrecision" transform="matrix(1,0,0,1,34,-225)" stroke="rgb(68,84,106)">
      <rect x="419.2976" width="170" height="103" y="456.8541" clip-path="url(#clipPath2)" stroke="none"/>
    </g>
    <g stroke-linecap="butt" font-size="18px" transform="matrix(1,0,0,1,34,-225)" fill="white" text-rendering="geometricPrecision" font-family="'Calibri'" shape-rendering="geometricPrecision" stroke="white" font-weight="bold" stroke-miterlimit="1.45">
      <text x="455.0964" xml:space="preserve" y="496.8404" clip-path="url(#clipPath2)" stroke="none">Catalogue of </text>
      <text x="437.4041" xml:space="preserve" y="514.8404" clip-path="url(#clipPath2)" stroke="none">Data Sources and </text>
      <text x="434.1301" xml:space="preserve" y="532.8404" clip-path="url(#clipPath2)" stroke="none">Simulation Models</text>
    </g>
    <g stroke-linecap="butt" transform="matrix(1,0,0,1,34,-225)" fill="rgb(231,230,230)" text-rendering="geometricPrecision" shape-rendering="geometricPrecision" stroke="rgb(231,230,230)" stroke-miterlimit="1.45">
      <rect fill="none" x="419.2976" width="170" height="103" y="456.8541" clip-path="url(#clipPath2)"/>
    </g>
    <g fill="rgb(68,84,106)" text-rendering="geometricPrecision" shape-rendering="geometricPrecision" transform="matrix(1,0,0,1,34,-225)" stroke="rgb(68,84,106)">
      <rect x="611.3288" width="170" height="103" y="603.64" clip-path="url(#clipPath2)" stroke="none"/>
    </g>
    <g stroke-linecap="butt" font-size="18px" transform="matrix(1,0,0,1,34,-225)" fill="white" text-rendering="geometricPrecision" font-family="'Calibri'" shape-rendering="geometricPrecision" stroke="white" font-weight="bold" stroke-miterlimit="1.45">
      <text x="635.9392" xml:space="preserve" y="661.6263" clip-path="url(#clipPath2)" stroke="none">Data Dashboard</text>
    </g>
    <g stroke-linecap="butt" transform="matrix(1,0,0,1,34,-225)" fill="rgb(231,230,230)" text-rendering="geometricPrecision" shape-rendering="geometricPrecision" stroke="rgb(231,230,230)" stroke-miterlimit="1.45">
      <rect fill="none" x="611.3288" width="170" height="103" y="603.64" clip-path="url(#clipPath2)"/>
    </g>
    <g fill="rgb(68,84,106)" text-rendering="geometricPrecision" shape-rendering="geometricPrecision" transform="matrix(1,0,0,1,34,-225)" stroke="rgb(68,84,106)">
      <rect x="227.2663" width="170" height="103" y="603.64" clip-path="url(#clipPath2)" stroke="none"/>
    </g>
    <g stroke-linecap="butt" font-size="18px" transform="matrix(1,0,0,1,34,-225)" fill="white" text-rendering="geometricPrecision" font-family="'Calibri'" shape-rendering="geometricPrecision" stroke="white" font-weight="bold" stroke-miterlimit="1.45">
      <text x="278.1604" xml:space="preserve" y="652.6263" clip-path="url(#clipPath2)" stroke="none">Scenario </text>
      <text x="262.0852" xml:space="preserve" y="670.6263" clip-path="url(#clipPath2)" stroke="none">Management</text>
    </g>
    <g stroke-linecap="butt" transform="matrix(1,0,0,1,34,-225)" fill="rgb(231,230,230)" text-rendering="geometricPrecision" shape-rendering="geometricPrecision" stroke="rgb(231,230,230)" stroke-miterlimit="1.45">
      <rect fill="none" x="227.2663" width="170" height="103" y="603.64" clip-path="url(#clipPath2)"/>
    </g>
    <g fill="rgb(68,84,106)" text-rendering="geometricPrecision" shape-rendering="geometricPrecision" transform="matrix(1,0,0,1,34,-225)" stroke="rgb(68,84,106)">
      <rect x="515.9021" width="170" height="103" y="750.4259" clip-path="url(#clipPath2)" stroke="none"/>
    </g>
    <g stroke-linecap="butt" font-size="18px" transform="matrix(1,0,0,1,34,-225)" fill="white" text-rendering="geometricPrecision" font-family="'Calibri'" shape-rendering="geometricPrecision" stroke="white" font-weight="bold" stroke-miterlimit="1.45">
      <text x="537.8274" xml:space="preserve" y="808.4122" clip-path="url(#clipPath2)" stroke="none">Map Component</text>
    </g>
    <g stroke-linecap="butt" transform="matrix(1,0,0,1,34,-225)" fill="rgb(231,230,230)" text-rendering="geometricPrecision" shape-rendering="geometricPrecision" stroke="rgb(231,230,230)" stroke-miterlimit="1.45">
      <rect fill="none" x="515.9021" width="170" height="103" y="750.4259" clip-path="url(#clipPath2)"/>
    </g>
    <g fill="rgb(68,84,106)" text-rendering="geometricPrecision" shape-rendering="geometricPrecision" transform="matrix(1,0,0,1,34,-225)" stroke="rgb(68,84,106)">
      <rect x="323.8709" width="170" height="103" y="897.2118" clip-path="url(#clipPath2)" stroke="none"/>
    </g>
    <g stroke-linecap="butt" font-size="18px" transform="matrix(1,0,0,1,34,-225)" fill="white" text-rendering="geometricPrecision" font-family="'Calibri'" shape-rendering="geometricPrecision" stroke="white" font-weight="bold" stroke-miterlimit="1.45">
      <text x="356.888" xml:space="preserve" y="937.1981" clip-path="url(#clipPath2)" stroke="none">Multi Criteria </text>
      <text x="342.5618" xml:space="preserve" y="955.1981" clip-path="url(#clipPath2)" stroke="none">Decision Analysis </text>
      <text x="392.5276" xml:space="preserve" y="973.1981" clip-path="url(#clipPath2)" stroke="none">Tool</text>
    </g>
    <g stroke-linecap="butt" transform="matrix(1,0,0,1,34,-225)" fill="rgb(231,230,230)" text-rendering="geometricPrecision" shape-rendering="geometricPrecision" stroke="rgb(231,230,230)" stroke-miterlimit="1.45">
      <rect fill="none" x="323.8709" width="170" height="103" y="897.2118" clip-path="url(#clipPath2)"/>
    </g>
    <g fill="rgb(68,84,106)" text-rendering="geometricPrecision" shape-rendering="geometricPrecision" transform="matrix(1,0,0,1,34,-225)" stroke="rgb(68,84,106)">
      <rect x="227.2663" width="170" height="103" y="310.0682" clip-path="url(#clipPath2)" stroke="none"/>
    </g>
    <g stroke-linecap="butt" font-size="18px" transform="matrix(1,0,0,1,34,-225)" fill="white" text-rendering="geometricPrecision" font-family="'Calibri'" shape-rendering="geometricPrecision" stroke="white" font-weight="bold" stroke-miterlimit="1.45">
      <text x="270.4788" xml:space="preserve" y="359.0545" clip-path="url(#clipPath2)" stroke="none">Integration</text>
      <text x="284.3611" xml:space="preserve" y="377.0545" clip-path="url(#clipPath2)" stroke="none">RDMBS</text>
    </g>
    <g stroke-linecap="butt" transform="matrix(1,0,0,1,34,-225)" fill="rgb(231,230,230)" text-rendering="geometricPrecision" shape-rendering="geometricPrecision" stroke="rgb(231,230,230)" stroke-miterlimit="1.45">
      <rect fill="none" x="227.2663" width="170" height="103" y="310.0682" clip-path="url(#clipPath2)"/>
    </g>
    <g fill="rgb(68,84,106)" text-rendering="geometricPrecision" shape-rendering="geometricPrecision" transform="matrix(1,0,0,1,34,-225)" stroke="rgb(68,84,106)">
      <rect x="419.2976" width="170" height="103" y="603.64" clip-path="url(#clipPath2)" stroke="none"/>
    </g>
    <g stroke-linecap="butt" font-size="18px" transform="matrix(1,0,0,1,34,-225)" fill="white" text-rendering="geometricPrecision" font-family="'Calibri'" shape-rendering="geometricPrecision" stroke="white" font-weight="bold" stroke-miterlimit="1.45">
      <text x="451.9895" xml:space="preserve" y="643.6263" clip-path="url(#clipPath2)" stroke="none">Data Package </text>
      <text x="433.8708" xml:space="preserve" y="661.6263" clip-path="url(#clipPath2)" stroke="none">Export and Import </text>
      <text x="487.9543" xml:space="preserve" y="679.6263" clip-path="url(#clipPath2)" stroke="none">Tool</text>
    </g>
    <g stroke-linecap="butt" transform="matrix(1,0,0,1,34,-225)" fill="rgb(231,230,230)" text-rendering="geometricPrecision" shape-rendering="geometricPrecision" stroke="rgb(231,230,230)" stroke-miterlimit="1.45">
      <rect fill="none" x="419.2976" width="170" height="103" y="603.64" clip-path="url(#clipPath2)"/>
    </g>
    <g fill="rgb(68,84,106)" text-rendering="geometricPrecision" shape-rendering="geometricPrecision" transform="matrix(1,0,0,1,34,-225)" stroke="rgb(68,84,106)">
      <rect x="35.2351" width="170" height="103" y="310.0682" clip-path="url(#clipPath2)" stroke="none"/>
    </g>
    <g stroke-linecap="butt" font-size="18px" transform="matrix(1,0,0,1,34,-225)" fill="white" text-rendering="geometricPrecision" font-family="'Calibri'" shape-rendering="geometricPrecision" stroke="white" font-weight="bold" stroke-miterlimit="1.45">
      <text x="66.1033" xml:space="preserve" y="359.0545" clip-path="url(#clipPath2)" stroke="none">UI Integration </text>
      <text x="87.4651" xml:space="preserve" y="377.0545" clip-path="url(#clipPath2)" stroke="none">Platform</text>
    </g>
    <g stroke-linecap="butt" transform="matrix(1,0,0,1,34,-225)" fill="rgb(231,230,230)" text-rendering="geometricPrecision" shape-rendering="geometricPrecision" stroke="rgb(231,230,230)" stroke-miterlimit="1.45">
      <rect fill="none" x="35.2351" width="170" height="103" y="310.0682" clip-path="url(#clipPath2)"/>
    </g>
    <g fill="rgb(68,84,106)" text-rendering="geometricPrecision" shape-rendering="geometricPrecision" transform="matrix(1,0,0,1,34,-225)" stroke="rgb(68,84,106)">
      <rect x="227.2663" width="170" height="103" y="456.8541" clip-path="url(#clipPath2)" stroke="none"/>
    </g>
    <g stroke-linecap="butt" font-size="18px" transform="matrix(1,0,0,1,34,-225)" fill="white" text-rendering="geometricPrecision" font-family="'Calibri'" shape-rendering="geometricPrecision" stroke="white" font-weight="bold" stroke-miterlimit="1.45">
      <text x="261.0305" xml:space="preserve" y="487.8404" clip-path="url(#clipPath2)" stroke="none">Catalogue of  </text>
      <text x="246.8537" xml:space="preserve" y="505.8404" clip-path="url(#clipPath2)" stroke="none">Elements at Risk  </text>
      <text x="294.095" xml:space="preserve" y="523.8404" clip-path="url(#clipPath2)" stroke="none">and  </text>
      <text x="238.6096" xml:space="preserve" y="541.8404" clip-path="url(#clipPath2)" stroke="none">Adaptation Options</text>
    </g>
    <g stroke-linecap="butt" transform="matrix(1,0,0,1,34,-225)" fill="rgb(231,230,230)" text-rendering="geometricPrecision" shape-rendering="geometricPrecision" stroke="rgb(231,230,230)" stroke-miterlimit="1.45">
      <rect fill="none" x="227.2663" width="170" height="103" y="456.8541" clip-path="url(#clipPath2)"/>
    </g>
    <g fill="rgb(68,84,106)" text-rendering="geometricPrecision" shape-rendering="geometricPrecision" transform="matrix(1,0,0,1,34,-225)" stroke="rgb(68,84,106)">
      <rect x="611.3288" width="170" height="103" y="456.8541" clip-path="url(#clipPath2)" stroke="none"/>
    </g>
    <g stroke-linecap="butt" font-size="18px" transform="matrix(1,0,0,1,34,-225)" fill="white" text-rendering="geometricPrecision" font-family="'Calibri'" shape-rendering="geometricPrecision" stroke="white" font-weight="bold" stroke-miterlimit="1.45">
      <text x="629.9231" xml:space="preserve" y="514.8404" clip-path="url(#clipPath2)" stroke="none">Table Component</text>
    </g>
    <g stroke-linecap="butt" transform="matrix(1,0,0,1,34,-225)" fill="rgb(231,230,230)" text-rendering="geometricPrecision" shape-rendering="geometricPrecision" stroke="rgb(231,230,230)" stroke-miterlimit="1.45">
      <rect fill="none" x="611.3288" width="170" height="103" y="456.8541" clip-path="url(#clipPath2)"/>
    </g>
    <g fill="rgb(68,84,106)" text-rendering="geometricPrecision" shape-rendering="geometricPrecision" transform="matrix(1,0,0,1,34,-225)" stroke="rgb(68,84,106)">
      <rect x="419.2976" width="170" height="103" y="1041.3048" clip-path="url(#clipPath2)" stroke="none"/>
    </g>
    <g stroke-linecap="butt" font-size="18px" transform="matrix(1,0,0,1,34,-225)" fill="white" text-rendering="geometricPrecision" font-family="'Calibri'" shape-rendering="geometricPrecision" stroke="white" font-weight="bold" stroke-miterlimit="1.45">
      <text x="457.0388" xml:space="preserve" y="1099.2911" clip-path="url(#clipPath2)" stroke="none">Marketplace</text>
    </g>
    <g stroke-linecap="butt" transform="matrix(1,0,0,1,34,-225)" fill="rgb(231,230,230)" text-rendering="geometricPrecision" shape-rendering="geometricPrecision" stroke="rgb(231,230,230)" stroke-miterlimit="1.45">
      <rect fill="none" x="419.2976" width="170" height="103" y="1041.3048" clip-path="url(#clipPath2)"/>
    </g>
  </g>
</svg>
